<?xml version="1.0" standalone="no"?>
<!DOCTYPE svg PUBLIC "-//W3C//DTD SVG 20010904//EN"
 "http://www.w3.org/TR/2001/REC-SVG-20010904/DTD/svg10.dtd">
<svg version="1.0" xmlns="http://www.w3.org/2000/svg"
 width="483.000000pt" height="187.000000pt" viewBox="0 0 483.000000 187.000000"
 preserveAspectRatio="xMidYMid meet">

<g transform="translate(0.000000,187.000000) scale(0.100000,-0.100000)"
fill="#000000" stroke="none">
<path d="M966 1769 c-21 -5 -50 -18 -65 -28 -20 -15 -37 -18 -67 -14 -48 6
-91 -13 -124 -54 -17 -22 -21 -37 -17 -72 5 -43 4 -45 -95 -160 -119 -137
-243 -321 -326 -481 -84 -160 -168 -381 -175 -455 -3 -33 -9 -77 -13 -97 -5
-29 2 -60 32 -145 44 -125 81 -173 134 -173 73 0 106 53 89 144 -5 31 -8 60
-4 65 3 5 41 21 85 36 77 26 82 26 114 11 67 -32 122 -10 135 54 6 30 13 37
61 56 67 28 65 29 117 -104 20 -53 45 -104 55 -114 29 -29 63 -23 95 19 39 51
37 121 -5 221 l-31 73 52 23 c137 62 274 129 522 253 290 145 330 173 381 267
25 44 29 63 31 145 1 65 -2 102 -12 121 -24 47 -123 130 -171 142 -33 9 -44
17 -44 32 0 11 -22 41 -49 67 -57 55 -128 82 -213 81 -48 -1 -60 3 -68 19 -25
46 -178 88 -251 69 -25 -7 -46 -7 -64 0 -31 12 -55 11 -109 -1z m49 -39 c-7
-23 10 -28 19 -5 3 8 13 15 22 15 13 0 15 -6 10 -27 -6 -25 -5 -26 7 -11 27
34 129 62 150 41 4 -3 -2 -12 -13 -20 -33 -23 -22 -34 13 -13 17 11 42 20 55
20 52 0 124 -62 88 -76 -8 -3 -17 -12 -20 -20 -4 -10 5 -8 32 6 39 21 132 28
132 10 0 -5 -6 -10 -12 -10 -13 0 -68 -39 -57 -40 4 0 24 7 45 16 58 24 119
11 166 -36 48 -47 48 -66 3 -74 -61 -12 -50 -26 22 -26 49 0 81 -7 113 -22
l45 -22 -60 -6 c-58 -6 -112 -26 -101 -37 3 -3 19 0 37 6 39 13 109 14 142 2
13 -5 31 -21 41 -35 l17 -27 -28 8 c-50 13 -109 7 -146 -16 -35 -21 -67 -80
-67 -121 0 -23 -9 -25 -43 -9 -30 14 -47 48 -47 94 0 19 -4 37 -10 40 -6 4
-10 -12 -10 -39 0 -25 -4 -46 -10 -46 -16 0 -43 50 -43 81 0 33 -13 39 -22 9
-14 -44 -54 -7 -54 50 -1 19 8 54 19 78 26 57 8 54 -20 -3 -15 -32 -21 -59
-18 -90 4 -50 -1 -53 -42 -29 -41 25 -63 68 -54 107 6 28 5 30 -9 19 -9 -8
-17 -23 -19 -35 -4 -26 -50 -36 -74 -16 -16 14 -19 85 -4 125 16 41 2 42 -15
1 -8 -20 -15 -55 -15 -77 0 -22 -4 -40 -8 -40 -18 0 -72 68 -78 98 -8 40 -24
42 -24 3 0 -16 -6 -31 -15 -34 -18 -8 -55 38 -55 69 0 12 -5 26 -12 30 -12 8
-7 -53 8 -90 6 -17 4 -18 -21 -12 -45 11 -85 45 -92 77 -6 33 -23 39 -23 9 0
-11 -4 -20 -10 -20 -13 0 -30 34 -30 59 0 12 -4 21 -10 21 -13 0 -13 -31 0
-64 8 -23 7 -26 -10 -26 -11 0 -20 6 -20 13 0 9 -2 9 -8 0 -6 -10 -13 -9 -30
3 -59 41 4 144 89 144 33 0 40 -3 35 -15 -8 -22 6 -18 32 9 12 13 39 29 60 34
57 15 64 14 57 -8z m-200 -204 c37 -1 63 -6 68 -14 4 -6 27 -22 49 -33 32 -16
54 -20 95 -17 50 4 56 2 89 -28 37 -36 87 -54 145 -54 28 0 41 -6 53 -25 21
-32 86 -65 129 -65 26 0 38 -7 56 -31 30 -40 139 -109 174 -109 31 0 36 -19
10 -43 -10 -8 -65 -33 -123 -55 -58 -21 -141 -57 -185 -79 -44 -22 -134 -62
-200 -89 -146 -59 -202 -96 -233 -155 -32 -60 -26 -136 23 -252 38 -93 44
-150 20 -196 -33 -65 -73 -44 -106 58 -12 36 -37 94 -56 129 -23 44 -33 77
-33 107 0 48 -15 95 -33 107 -22 14 -82 8 -114 -12 -51 -30 -51 -48 -10 -203
23 -82 12 -107 -46 -107 -51 0 -68 15 -87 75 -21 67 -40 95 -73 111 -42 20
-80 6 -103 -38 -20 -37 -25 -193 -10 -288 10 -70 -11 -104 -64 -102 -45 1 -67
26 -97 108 -13 38 -32 89 -40 113 -13 37 -14 52 -5 88 7 24 12 61 12 83 0 25
18 87 46 158 127 321 273 562 489 805 49 55 64 67 80 61 11 -4 47 -8 80 -8z
m1060 -210 c46 -19 59 -47 50 -110 -18 -138 -79 -196 -350 -333 -306 -154
-605 -294 -616 -288 -5 4 -9 30 -9 59 0 98 51 143 255 224 55 22 141 60 190
84 50 25 134 62 188 83 54 20 110 47 125 60 26 22 26 25 13 57 -22 55 -24 84
-6 117 27 54 95 74 160 47z m-1131 -662 c9 -8 16 -32 16 -53 0 -21 3 -52 6
-69 6 -28 3 -31 -41 -51 -26 -12 -50 -21 -54 -21 -9 0 -41 114 -41 145 0 18 9
31 33 45 39 24 60 25 81 4z m-309 -148 c21 -21 45 -81 45 -113 0 -6 -34 -23
-76 -37 l-77 -25 5 79 c7 114 47 152 103 96z"/>
<path d="M1120 1661 c-13 -26 -13 -81 1 -81 5 0 8 4 4 9 -3 6 -1 28 4 50 10
45 7 51 -9 22z"/>
<path d="M923 1608 c4 -28 12 -56 18 -62 9 -8 10 -5 5 14 -3 14 -6 42 -6 63 0
21 -5 37 -11 37 -8 0 -10 -16 -6 -52z"/>
<path d="M762 1610 c0 -19 2 -27 5 -17 2 9 2 25 0 35 -3 9 -5 1 -5 -18z"/>
<path d="M1255 1557 c-8 -20 -14 -56 -14 -79 l1 -43 8 45 c5 25 13 58 19 74
17 43 4 45 -14 3z"/>
<path d="M1504 1565 c-10 -8 -14 -15 -7 -15 19 0 43 11 43 21 0 13 -14 11 -36
-6z"/>
<path d="M1400 1559 c0 -5 5 -7 10 -4 6 3 10 8 10 11 0 2 -4 4 -10 4 -5 0 -10
-5 -10 -11z"/>
<path d="M1580 1549 c-34 -14 -59 -38 -77 -74 -14 -29 -13 -28 16 6 16 20 44
42 61 49 16 7 30 16 30 21 0 5 -1 9 -2 8 -2 0 -14 -5 -28 -10z"/>
<path d="M710 1456 c0 -8 4 -17 8 -20 13 -8 35 11 28 23 -10 16 -36 14 -36 -3z"/>
<path d="M830 1450 c-25 -25 -25 -42 -2 -63 28 -26 76 -32 95 -12 24 24 21 51
-9 74 -33 26 -58 27 -84 1z"/>
<path d="M1036 1414 c-29 -28 -12 -64 29 -64 20 0 55 27 55 43 0 13 -32 37
-50 37 -10 0 -26 -7 -34 -16z"/>
<path d="M625 1346 c-16 -7 -45 -25 -63 -41 -134 -112 -65 -289 99 -254 95 20
169 102 169 185 0 94 -108 152 -205 110z m7 -55 c-16 -14 -37 -48 -47 -74 -18
-47 -37 -57 -43 -23 -5 26 35 99 65 117 41 26 59 12 25 -20z m-42 -156 c0 -8
-6 -15 -14 -15 -17 0 -28 14 -19 24 12 12 33 6 33 -9z"/>
<path d="M1012 1294 c-92 -34 -146 -121 -117 -190 36 -86 203 -101 303 -26 76
56 94 137 43 194 -28 31 -33 33 -108 35 -51 2 -93 -3 -121 -13z m62 -20 c26
-10 19 -22 -20 -34 -22 -8 -46 -27 -65 -53 -34 -47 -56 -55 -51 -17 10 71 81
125 136 104z m-99 -164 c0 -22 -29 -18 -33 3 -3 14 1 18 15 15 10 -2 18 -10
18 -18z"/>
<path d="M892 1269 c2 -6 8 -10 13 -10 5 0 11 4 13 10 2 6 -4 11 -13 11 -9 0
-15 -5 -13 -11z"/>
<path d="M1340 1225 c0 -8 5 -15 10 -15 6 0 10 7 10 15 0 8 -4 15 -10 15 -5 0
-10 -7 -10 -15z"/>
<path d="M1413 1178 c-44 -48 -56 -74 -43 -98 13 -24 71 -28 89 -6 15 17 11
128 -4 133 -6 2 -25 -11 -42 -29z"/>
<path d="M418 1089 c-45 -26 -46 -89 -2 -89 46 0 81 59 52 88 -14 14 -27 15
-50 1z"/>
<path d="M808 1039 c-25 -14 -23 -56 2 -64 24 -7 70 18 70 38 0 32 -39 46 -72
26z"/>
<path d="M1218 1029 c-37 -14 -44 -40 -18 -61 27 -22 49 -23 78 -2 50 35 3 85
-60 63z"/>
<path d="M720 1005 c0 -8 7 -15 15 -15 8 0 15 7 15 15 0 8 -7 15 -15 15 -8 0
-15 -7 -15 -15z"/>
<path d="M488 986 c-59 -16 -94 -39 -118 -79 -45 -74 -9 -147 72 -147 132 0
240 39 264 95 21 52 17 74 -20 111 -31 31 -39 34 -92 33 -33 0 -80 -6 -106
-13z m22 -46 c0 -5 -4 -10 -9 -10 -19 0 -70 -51 -73 -73 -5 -37 -33 -27 -33
13 0 28 6 38 34 57 35 24 81 31 81 13z m-60 -125 c0 -8 -6 -15 -14 -15 -17 0
-28 14 -19 24 12 12 33 6 33 -9z"/>
<path d="M1047 974 c-12 -12 -8 -42 6 -47 21 -8 39 8 35 29 -3 19 -29 30 -41
18z"/>
<path d="M962 959 c2 -6 8 -10 13 -10 5 0 11 4 13 10 2 6 -4 11 -13 11 -9 0
-15 -5 -13 -11z"/>
<path d="M833 900 c-65 -39 -64 -90 2 -90 25 0 40 8 59 31 29 34 32 49 14 67
-17 17 -38 15 -75 -8z"/>
<path d="M267 804 c-4 -4 -7 -16 -7 -26 0 -14 6 -19 23 -16 14 2 22 10 22 23
0 20 -25 32 -38 19z"/>
<path d="M671 776 c-12 -14 -5 -26 16 -26 15 0 18 26 4 34 -5 3 -14 0 -20 -8z"/>
<path d="M294 700 c-27 -11 -74 -67 -74 -89 0 -41 48 -53 100 -26 33 17 50 43
50 77 0 43 -29 57 -76 38z m21 -87 c-18 -12 -55 -18 -55 -8 0 2 12 11 27 19
33 17 54 9 28 -11z"/>
<path d="M435 690 c-8 -13 3 -30 20 -30 14 0 27 24 18 34 -10 9 -31 7 -38 -4z"/>
<path d="M586 530 c11 -72 25 -93 21 -32 -2 29 -10 59 -16 65 -9 9 -10 2 -5
-33z"/>
<path d="M934 462 c13 -26 28 -65 31 -86 5 -26 11 -34 18 -27 13 13 -6 81 -35
129 -30 50 -41 38 -14 -16z"/>
<path d="M214 469 c-10 -17 13 -36 27 -22 12 12 4 33 -11 33 -5 0 -12 -5 -16
-11z"/>
<path d="M260 330 c0 -38 22 -120 32 -120 6 0 8 13 4 33 -3 17 -9 49 -12 70
-7 39 -24 52 -24 17z"/>
<path d="M1876 1231 c-4 -7 -5 -15 -2 -18 9 -9 19 4 14 18 -4 11 -6 11 -12 0z"/>
<path d="M1797 1194 c-8 -8 1 -24 14 -24 5 0 9 7 9 15 0 15 -12 20 -23 9z"/>
<path d="M1767 1094 c-9 -10 2 -24 19 -24 8 0 14 7 14 15 0 15 -21 21 -33 9z"/>
<path d="M1650 1000 c0 -5 5 -10 10 -10 6 0 10 5 10 10 0 6 -4 10 -10 10 -5 0
-10 -4 -10 -10z"/>
<path d="M1540 970 c0 -5 5 -10 10 -10 6 0 10 5 10 10 0 6 -4 10 -10 10 -5 0
-10 -4 -10 -10z"/>
<path d="M1480 905 c0 -10 7 -15 18 -13 21 4 19 22 -2 26 -10 2 -16 -3 -16
-13z"/>
<path d="M1270 870 c0 -5 5 -10 11 -10 5 0 7 5 4 10 -3 6 -8 10 -11 10 -2 0
-4 -4 -4 -10z"/>
<path d="M1380 834 c0 -8 5 -12 10 -9 6 4 8 11 5 16 -9 14 -15 11 -15 -7z"/>
<path d="M1072 753 c2 -10 10 -18 18 -18 8 0 16 8 18 18 2 12 -3 17 -18 17
-15 0 -20 -5 -18 -17z"/>
<path d="M1240 740 c0 -5 4 -10 9 -10 6 0 13 5 16 10 3 6 -1 10 -9 10 -9 0
-16 -4 -16 -10z"/>
<path d="M1100 682 c-41 -20 -68 -38 -59 -40 18 -3 113 37 144 62 35 27 -4 17
-85 -22z"/>
<path d="M2247 1213 c-4 -3 -7 -129 -7 -280 l0 -273 55 0 54 0 3 98 3 97 96 6
c115 6 157 27 188 93 54 110 -6 229 -129 255 -55 12 -252 15 -263 4z m258 -93
c15 -6 32 -24 41 -45 12 -30 12 -39 0 -69 -19 -46 -42 -56 -125 -56 l-71 0 0
90 0 90 64 0 c36 0 76 -4 91 -10z"/>
<path d="M2740 1171 l0 -51 56 0 55 0 -3 48 -3 47 -52 3 -53 3 0 -50z"/>
<path d="M3717 1213 c-4 -3 -7 -26 -7 -50 l0 -43 55 0 55 0 0 50 0 50 -48 0
c-27 0 -52 -3 -55 -7z"/>
<path d="M4100 941 l0 -281 55 0 55 0 0 100 0 100 83 0 c147 0 217 57 217 175
0 76 -25 118 -90 155 -40 22 -59 25 -182 28 l-138 4 0 -281z m281 160 c31 -31
37 -67 17 -104 -20 -38 -40 -46 -115 -47 l-73 0 0 90 0 90 71 0 c65 0 73 -2
100 -29z"/>
<path d="M4597 1213 c-4 -3 -7 -26 -7 -50 l0 -43 55 0 55 0 0 50 0 50 -48 0
c-27 0 -52 -3 -55 -7z"/>
<path d="M2740 860 l0 -200 50 0 50 0 0 200 0 200 -50 0 -50 0 0 -200z"/>
<path d="M2930 1020 l0 -39 93 -3 94 -3 -99 -128 c-74 -96 -98 -135 -98 -157
l0 -30 170 0 170 0 0 40 0 40 -101 0 -100 0 95 124 c80 104 96 131 96 160 l0
36 -160 0 -160 0 0 -40z"/>
<path d="M3310 1020 l0 -39 93 -3 94 -3 -99 -128 c-74 -96 -98 -135 -98 -157
l0 -30 170 0 170 0 0 40 0 40 -101 0 -100 0 95 124 c80 104 96 131 96 160 l0
36 -160 0 -160 0 0 -40z"/>
<path d="M3710 860 l0 -200 55 0 55 0 0 200 0 200 -55 0 -55 0 0 -200z"/>
<path d="M4590 860 l0 -200 55 0 55 0 0 200 0 200 -55 0 -55 0 0 -200z"/>
</g>
</svg>
